<?xml version="1.0" encoding="utf-8"?>
<!-- Generator: Adobe Illustrator 22.0.1, SVG Export Plug-In . SVG Version: 6.00 Build 0)  -->
<svg version="1.1" xmlns="http://www.w3.org/2000/svg" xmlns:xlink="http://www.w3.org/1999/xlink" x="0px" y="0px"
	 viewBox="0 0 364.8 243.9" style="enable-background:new 0 0 364.8 243.9;" xml:space="preserve">
<style type="text/css">
	.st0{opacity:0.18;fill:#088708;stroke:#088708;stroke-miterlimit:10;}
	.st1{fill:#020202;}
	.st2{fill:none;stroke:#020202;stroke-width:3;stroke-linecap:round;stroke-miterlimit:10;}
</style>
<g id="Layer_1">
</g>
<g id="Layer_2">
	<rect x="-0.2" y="0.3" class="st0" width="365" height="243.5"/>
	<g>
		<g>
			<g>
				<g>
					<path class="st1" d="M82.6,120.6c-6.3-13.7-0.7-36,14.9-40.7c0.8-0.2,1.3-1.1,1-1.8c-4.7-15.3,8.6-27.6,22.9-29.5
						c5.7-0.7,10.6,0.4,15.5-3.3c5.2-4.1,9.9-8.3,15.9-11.1c12.2-5.7,26.7-6.1,38.3,1.3c6.2,4,10,9.7,12.7,16.4
						c2.2,5.5,4,11.1,7.5,16c1.1,1.6,3.7,0.1,2.6-1.5c-4.7-6.5-6.1-14.4-9.9-21.4c-2.9-5.4-7.3-9.8-12.6-12.9
						c-11.8-6.9-26.2-6.7-38.5-1.3c-3.5,1.6-6.9,3.5-10.1,5.7c-3,2.1-5.5,5-8.5,7c-3.9,2.5-8.8,1.5-13.2,2c-3.3,0.4-6.6,1.3-9.6,2.6
						C99.5,53.3,91.7,66,95.7,78.9c0.3-0.6,0.7-1.2,1-1.8c-17.7,5.3-23.8,29.7-16.7,45.1C80.8,123.9,83.4,122.4,82.6,120.6
						L82.6,120.6z"/>
				</g>
			</g>
			<g>
				<g>
					<path class="st1" d="M199.9,40.6c10.1-2.2,21.1-4.7,31.3-1.3c8.7,2.9,16.1,10.8,15.3,20.4c-0.1,0.8,0.7,1.5,1.5,1.5
						c7.5,0.4,14.6,3.1,20.3,7.9c6.3,5.3,12.2,14,9.9,22.5c-1.9,7.3-8,14-13.2,19.2c-5.5,5.6-11.8,10.2-18.7,13.9
						c-1.7,0.9-0.2,3.5,1.5,2.6c8.3-4.5,15.8-10.3,22.2-17.4c5.5-6.1,12.1-14,11.8-22.7C281.2,70.7,263.1,59,248,58.2
						c0.5,0.5,1,1,1.5,1.5c0.8-9.8-5.9-18.1-14.5-22.1c-11.2-5.2-24.3-2.4-35.9,0.1C197.3,38.2,198.1,41.1,199.9,40.6L199.9,40.6z"
						/>
				</g>
			</g>
			<g>
				<g>
					<path class="st1" d="M266.9,111.6c6.2,10.7,15.8,25.9,8.9,38.1c-5.9,10.3-16.3,19.3-28.4,20.4c-0.9,0.1-1.8,0.9-1.4,1.9
						c3.6,9.9,5.9,20,6.9,30.4c0.4-0.5,0.7-1,1.1-1.4c-3.6,1.1-7.2,2.2-10.8,3.4c-3.9,1.2-8.1,3.7-11.6,0.3c-2.3-2.3-4-5.8-5.8-8.5
						c-2.1-3.1-4.2-6.2-6.4-9.2c-2.6-3.7-4.5-6.4-9.4-6.4c-3.8,0-7,0.1-10.1-2.5c-2.3-1.9-3.8-4.4-5.1-7c-0.9-1.7-3.5-0.2-2.6,1.5
						c2.4,4.4,5.5,8.8,10.5,10.4c3.6,1.2,8.6-0.5,11.6,2c3,2.5,5.1,7.2,7.3,10.4c2.3,3.3,4.6,6.7,6.9,10c1.1,1.6,2.2,3.7,4.2,4.4
						c3,1,6.8-1.1,9.5-2c4.2-1.3,8.4-2.6,12.6-3.9c0.6-0.2,1.2-0.8,1.1-1.4c-1-10.7-3.3-21.1-7-31.2c-0.5,0.6-1,1.3-1.4,1.9
						c13.3-1.2,24.5-10.6,31-21.8c7.7-13.3-2.1-29.4-8.9-41.1C268.5,108.4,266,109.9,266.9,111.6L266.9,111.6z"/>
				</g>
			</g>
			<g>
				<g>
					<path class="st1" d="M112.4,107.9c-10-3.6-21.5-0.8-27.9,7.9c-7.3,10-5,21.6,1.1,31.5c5.7,9.1,13.7,18,24.4,20.9
						c9.4,2.5,19.7-0.1,25.6-8c-0.9,0-1.7,0-2.6,0c6.9,14.6,24.9,30.9,42.5,27.1c8-1.7,13.2-8.7,17-15.5c4.7-8.5,9.5-17.7,9.1-27.7
						c-0.1-1.9-3.1-1.9-3,0c0.4,8.8-3.6,16.7-7.6,24.2c-3.7,7-8.4,14.7-16.8,16.1c-16.1,2.7-32.1-12.4-38.4-25.8
						c-0.5-1.1-2-0.8-2.6,0c-5.5,7.4-15.8,9.1-24.2,6c-8.5-3.1-14.9-10.2-19.8-17.6c-5.5-8.4-8.8-18-3.5-27.4
						c5.2-9.3,16.4-12.6,26.1-9C113.4,111.4,114.2,108.5,112.4,107.9L112.4,107.9z"/>
				</g>
			</g>
		</g>
		<g>
			<g>
				<g>
					<path d="M115.4,144.9c3.7-29,11.3-57.4,22.8-84.3c-0.9-0.4-1.8-0.8-2.7-1.2c-3.2,14.9-4.6,30.4-0.9,45.3
						c3.6,14.8,12.3,27.2,23.8,37c0.4-0.9,0.7-1.7,1.1-2.6c-18.2-1.7-29.3-16-40.9-28.4c-0.1,0.8-0.2,1.6-0.3,2.4
						c22-11.9,42.1-26.9,59.8-44.7c-0.9-0.4-1.7-0.7-2.6-1.1c0.8,28,1.6,56,2.5,84c0.1,1.9,2.9,1.9,3,0c1.1-27.6,6.9-54.6,17-80.3
						c-1,0-1.9,0-2.9,0c4.4,23.2,8.9,46.8,19.5,68.1c1.5,3.1,3.4,8.6,7,10c3.4,1.3,6.4-1.6,8.6-3.8c7.6-7.6,13.3-16.7,17.5-26.6
						c0.7-1.8-2.2-2.6-2.9-0.8c-3.7,8.9-8.9,17.1-15.5,24.1c-2.3,2.5-5.6,4.9-8.7,1.9c-1.4-1.4-2.4-4.4-3.3-6.2
						c-2.2-4.3-4.1-8.8-5.7-13.4c-6.5-17.4-10-35.8-13.4-54c-0.3-1.6-2.4-1.2-2.9,0c-10.2,25.9-16,53.2-17.1,81.1c1,0,2,0,3,0
						c-0.8-28-1.6-56-2.5-84c0-1.3-1.6-2-2.6-1.1c-17.4,17.6-37.3,32.5-59.1,44.2c-0.9,0.5-0.9,1.7-0.3,2.4
						c12.3,13.2,23.8,27.5,43.1,29.3c1.3,0.1,2-1.7,1.1-2.6c-11.1-9.4-19.5-21.3-23-35.6c-3.5-14.4-2.1-29.4,0.9-43.7
						c0.3-1.6-2-2.8-2.7-1.2c-11.7,27.4-19.5,56.2-23.2,85.8C112.2,146.8,115.2,146.8,115.4,144.9L115.4,144.9z"/>
				</g>
			</g>
			<g>
				<line class="st2" x1="143.9" y1="96.7" x2="168.1" y2="76.1"/>
				<line class="st2" x1="158.6" y1="91.6" x2="168.1" y2="76.1"/>
				<line class="st2" x1="173" y1="92.9" x2="158.6" y2="91.6"/>
				<line class="st2" x1="144.4" y1="115.3" x2="173" y2="92.9"/>
				<line class="st2" x1="143.9" y1="96.7" x2="158.1" y2="97.7"/>
				<line class="st2" x1="144.4" y1="115.3" x2="158.1" y2="97.7"/>
			</g>
		</g>
	</g>
</g>
</svg>
